<svg id="neteroSVG" viewBox="0 0 323.57 538.32">
  <defs>
    <style>
      #neteroSVG .cls-1, #neteroSVG .cls-11 {
        fill: #d9c3bf;
      }

      #neteroSVG .cls-2 {
        fill: #fcded9;
      }

      #neteroSVG .cls-11, #neteroSVG .cls-13, #neteroSVG .cls-3, #neteroSVG .cls-4, #neteroSVG .cls-5 {
        stroke: #000;
        stroke-miterlimit: 10;
      }

      #neteroSVG .cls-4, #neteroSVG .cls-5 {
        stroke-width: 2px;
      }

      #neteroSVG .cls-5 {
        fill: #855c6b;
      }

      #neteroSVG .cls-6 {
        fill: #535959;
      }

      #neteroSVG .cls-7 {
        fill: #c9d7d8;
      }

      #neteroSVG .cls-8 {
        fill: #ff7b47;
      }

      #neteroSVG .cls-9 {
        fill: #8e9899;
      }

      #neteroSVG .cls-10 {
        fill: #1d1d1b;
      }

      #neteroSVG .cls-12 {
        fill: #d9c3b0;
      }

      #neteroSVG .cls-13 {
        fill: none;
      }
    </style>
  </defs>
  <g id="Calque_2" data-name="Calque 2">
    <g id="Calque_1-2" data-name="Calque 1">
      <path class="cls-1" d="M312.87,277.29c-5.7,12-8.55,18.08-13.84,23.73-3,3.26-5.45,7.07-8.24,10.55-3.1,3.86-4.08,5-4.94,7.25s-.7,3.54-1.31,10.67c-.58,6.72-.81,6.32-.86,8.79a42,42,0,0,0,1.84,12.85c3,10.81,4.53,22,6.92,33,5.05,23.18,4.82,27.59,2.4,31.9-.44.78-5.19,8.93-14.27,10-8.64,1-14.82-5.21-15.82-6.26-2.62-2.74-3.85-6.46-6.32-13.91a90.35,90.35,0,0,1-3.74-16.11,96.55,96.55,0,0,1-.82-10.2c-.18-5.74.15-10.26,1.37-20.4q-1.08,3.54-2.1,7.16c-7.87,27.12-10.09,49.5-7.25,59.27,1,3.15,0,6.93-1.89,10.09-2.2,2.84-4.09,5.67-6.62,8.51A84.14,84.14,0,0,0,218.1,454c-14,9.65-16.22,17.59-28.09,25.44-4,2.66-15.37,10.27-28.91,9.77-24.91-.91-31.73-28.27-57.63-35.21a46.27,46.27,0,0,1-18.66-9.86c-3.18-2.9-4.57-6.21-6.62-8.84a11.22,11.22,0,0,1-2.2-9.77c3.15-9.46.63-31.85-6.94-59.27-1.48-5-3-9.88-4.65-14.62l1.93,7.52c1.21,10.1,1.53,14.61,1.36,20.35a96.55,96.55,0,0,1-.82,10.2,90.35,90.35,0,0,1-3.74,16.11c-2.47,7.45-3.7,11.17-6.32,13.91-1,1.05-7.18,7.25-15.82,6.26-9.08-1-13.83-9.18-14.27-10-2.42-4.31-2.65-8.72,2.4-31.9,2.39-11,3.91-22.15,6.92-33a42,42,0,0,0,1.84-12.85c-.05-2.47-.28-2.07-.86-8.79-.61-7.13-.41-8.26-1.31-10.67s-1.84-3.39-4.94-7.25c-2.79-3.48-5.19-7.29-8.24-10.55-5.29-5.65-8.14-11.68-13.84-23.73-6.93-14.66-10.35-22.16-7.91-30,.48-1.55,2.23-7.19,7.31-9.71,6.78-3.37,14.8,1.16,17.09,2.46,4.08,2.31,10.7,7.39,17.2,25.6a273,273,0,0,1,18.16-94.53c15.37-36,47.55-63.12,89.17-67.24,3.62-.35,7.3-.54,11.06-.54,1.69,0,3.38,0,5,.11,44.54,2,79.11,30,95.2,67.67a274.11,274.11,0,0,1,16.12,64.47,272.16,272.16,0,0,1,2.05,30.06c6.5-18.21,13.12-23.29,17.2-25.6,2.29-1.3,10.31-5.83,17.09-2.46,5.08,2.52,6.83,8.16,7.31,9.71C323.22,255.13,319.8,262.63,312.87,277.29Z"/>
      <path class="cls-2" d="M314.87,275.29c-5.7,12-8.55,18.08-13.84,23.73-3,3.26-5.45,7.07-8.24,10.55-3.1,3.86-4.08,5-4.94,7.25s-.7,3.54-1.31,10.67c-.58,6.72-.81,6.32-.86,8.79a42,42,0,0,0,1.84,12.85c3,10.81,4.53,22,6.92,33,5.05,23.18,4.82,27.59,2.4,31.9-.44.78-5.19,8.93-14.27,10-8.64,1-14.82-5.21-15.82-6.26-2.62-2.74-3.85-6.46-6.32-13.91a90.35,90.35,0,0,1-3.74-16.11,96.55,96.55,0,0,1-.82-10.2c-.18-5.74.15-10.26,1.37-20.4q-1.08,3.54-2.1,7.16c-7.87,27.12-10.09,49.5-7.25,59.27,1,3.15,0,6.93-1.89,10.09-2.2,2.84-4.09,5.67-6.62,8.51A84.14,84.14,0,0,0,220.1,452c-14,9.65-16.22,17.59-28.09,25.44-4,2.66-15.37,10.27-28.91,9.77-24.91-.91-31.73-28.27-57.63-35.21a46.27,46.27,0,0,1-18.66-9.86c-3.18-2.9-4.57-6.21-6.62-8.84a11.22,11.22,0,0,1-2.2-9.77c3.15-9.46.63-31.85-6.94-59.27-1.48-5-3-9.88-4.65-14.62l1.93,7.52c1.21,10.1,1.53,14.61,1.36,20.35a96.55,96.55,0,0,1-.82,10.2,90.35,90.35,0,0,1-3.74,16.11c-2.47,7.45-3.7,11.17-6.32,13.91-1,1.05-7.18,7.25-15.82,6.26-9.08-1-13.83-9.18-14.27-10-2.42-4.31-2.65-8.72,2.4-31.9,2.39-11,3.91-22.15,6.92-33a42,42,0,0,0,1.84-12.85c-.05-2.47-.28-2.07-.86-8.79-.61-7.13-.41-8.26-1.31-10.67s-1.84-3.39-4.94-7.25c-2.79-3.48-5.19-7.29-8.24-10.55-5.29-5.65-8.14-11.68-13.84-23.73-6.93-14.66-10.35-22.16-7.91-30,.48-1.55,2.23-7.19,7.31-9.71,6.78-3.37,14.8,1.16,17.09,2.46,4.08,2.31,10.7,7.39,17.2,25.6a273,273,0,0,1,18.16-94.53c15.37-36,47.55-63.12,89.17-67.24,3.62-.35,7.3-.54,11.06-.54,1.69,0,3.38,0,5,.11,44.54,2,79.11,30,95.2,67.67a274.11,274.11,0,0,1,16.12,64.47,272.16,272.16,0,0,1,2.05,30.06c6.5-18.21,13.12-23.29,17.2-25.6,2.29-1.3,10.31-5.83,17.09-2.46,5.08,2.52,6.83,8.16,7.31,9.71C325.22,253.13,321.8,260.63,314.87,275.29Z"/>
      <circle class="cls-3" cx="44.35" cy="409.83" r="6.8"/>
      <circle class="cls-3" cx="52.32" cy="390.56" r="4.61"/>
      <g>
        <circle class="cls-3" cx="281.21" cy="409.83" r="6.8"/>
        <circle class="cls-3" cx="273.24" cy="390.56" r="4.61"/>
      </g>
      <path class="cls-4" d="M202.81,406c-2.21,3.78-7.88,12.92-12.61,20.17a53.12,53.12,0,0,1-3.47,4.73c-1.26.94-4.41,4.41-9.14,6.93-5,2.21-9.14,2.21-14.82,2.52C157.1,440,153,440,148,437.8c-4.73-2.52-7.88-6-9.14-6.93a53.12,53.12,0,0,1-3.47-4.73c-4.73-7.25-10.4-16.39-12.61-20.17-4.1-9.77-18.91-41.61-16.07-47.28,2.84-6,9.46-7.88,10.4-8.19,15.13,0,30.58-.32,45.71-.63,15.13.32,30.58.63,45.71.63.94.31,7.56,2.2,10.4,8.19C221.72,364.36,206.91,396.2,202.81,406Z"/>
      <path class="cls-5" d="M194.44,403.69c-1.74,3-6.23,10.22-10,16a43.05,43.05,0,0,1-2.74,3.74c-1,.74-3.49,3.49-7.23,5.48-4,1.75-7.23,1.75-11.72,2-4.49-.25-7.73-.25-11.72-2-3.74-2-6.23-4.74-7.23-5.48a43.05,43.05,0,0,1-2.74-3.74c-3.74-5.74-8.23-13-10-16-3.25-7.72-15-32.91-12.71-37.39,2.24-4.74,7.48-6.23,8.22-6.48,12,0,24.19-.25,36.15-.5,12,.26,24.19.5,36.16.5.74.25,6,1.74,8.22,6.48C209.4,370.78,197.69,396,194.44,403.69Z"/>
      <g>
        <path class="cls-6" d="M197,337c6.1.82,21.7,13.79,23,16.43s-2.53-2-4.29,1.21S197,337,197,337Z"/>
        <path class="cls-6" d="M191,335.28s1.9-4.4,7.25.82a150.19,150.19,0,0,1,13.41,15.22c1.32,2-5.38-2.42-3.85-.66,1.14,1.3,4,5.95,3.13,6.7-.38.33-1.66-.48-2.58-1-5.33-3-9.44-1.41-12.29-2.67C193.48,352.55,190.76,348.54,191,335.28Z"/>
        <path class="cls-6" d="M123.06,350.55c.44,7.24-1.87,11.86,6.48,2.3s15.05-13.73,11.87-14.5-5-4.82-7.47-2.86"/>
        <path class="cls-6" d="M111.91,343.13c-2.22,2.72-7.58,2.75-7.8,5.05s-1,2.86,1.87,2.53-8.87,6.59-2.13,5.6,5.2-5.93,4.44-2.53-2.86,10.72,2.64,4.54,5.49-5.19,5.49-3.88-2,7.14-.66,5.71,4.29-2.2,4.61-6.7,4.51-2.18,3.3-1.53,4.61-4.4,5.93-8.8,5.82-6.7,3.63-8.35S112.9,341.92,111.91,343.13Z"/>
        <path class="cls-6" d="M142.36,338.89c-2,3.26-10.33,8.57-5.83,9.89s-2,10.44,1.65,7,7.91-3.85,7.91-5.05,10.88-16.59.77-15.05S142.36,338.89,142.36,338.89Z"/>
        <path class="cls-6" d="M180.93,351.68c-1.87.22-2-6.1-2-6.1a69.05,69.05,0,0,0-2.09-7,1,1,0,0,1-.45-1.49c.12-.17.46-.51,2.3-.16,3.39.64,3.91,2.1,5.63,2,2.33-.13,3.5-2.95,4.28-2.55.55.29.21,1.84-.09,3.61-1,5.88-1.14,8.94-.13,11.67.74,2,6.62,4.77.43,3.46S182.34,351.52,180.93,351.68Z"/>
        <path class="cls-6" d="M169.23,347.44c7.18,7.48,9.89,11.62,10.59,8.2s-.66-9.24-.66-9.24l-2.09-7s-6-5.84-9.92-1.93"/>
        <path class="cls-6" d="M166.43,354.39c-.88,3.19-.55,1.21-7-5.49l.4-11.48a9.24,9.24,0,0,0,5.75-.17c2.31-1.1,2,5.16,4.07,5.38S167.31,351.2,166.43,354.39Z"/>
        <path class="cls-6" d="M160.05,348.74s-2.09-3.08-5.93,4-3.08,8.46-5.82,3.08c-2.68-5.23,1-17.19,6.27-19.6a1.37,1.37,0,0,1,.87-.08l3.1.63a1.5,1.5,0,0,1,1.19,1.58c-.14,2.45.52,7.46,2,8.69C163.79,348.78,160.05,348.74,160.05,348.74Z"/>
        <path class="cls-6" d="M194.31,358c-1.22,1.39-3.61,2.87-4.75,2.2-1.62-1,.67-5.46-2-8.57-.86-1-2.35-2-2.11-2.45a15.68,15.68,0,0,0,.68-4c-.22-.43-2.31-7.15-2.31-7.15a5.35,5.35,0,0,1,.61-.81c2-2.19,5.34-2,6.34-1.89C191.91,337.35,199.65,352,194.31,358Z"/>
      </g>
      <g>
        <path class="cls-7" d="M198.79,338c6.1.82,21.7,13.79,23,16.43s-2.53-2-4.29,1.21S198.79,338,198.79,338Z"/>
        <path class="cls-7" d="M192.78,336.28s1.9-4.4,7.25.82a150.19,150.19,0,0,1,13.41,15.22c1.32,2-5.38-2.42-3.85-.66,1.13,1.3,4,5.95,3.13,6.7-.38.33-1.66-.48-2.58-1-5.34-3-9.44-1.41-12.29-2.67C195.24,353.55,192.53,349.54,192.78,336.28Z"/>
        <path class="cls-7" d="M124.82,351.55c.44,7.24-1.87,11.86,6.48,2.3s15-13.73,11.87-14.5-5-4.82-7.47-2.86"/>
        <path class="cls-7" d="M113.67,344.13c-2.22,2.72-7.58,2.75-7.8,5.05s-1,2.86,1.87,2.53-8.87,6.59-2.13,5.6,5.2-5.93,4.44-2.53-2.86,10.72,2.64,4.54,5.49-5.19,5.49-3.88-2,7.14-.66,5.71,4.29-2.2,4.61-6.7,4.51-2.18,3.3-1.53,4.61-4.4,5.93-8.8,5.82-6.7,3.63-8.35S114.66,342.92,113.67,344.13Z"/>
        <path class="cls-7" d="M144.13,339.89c-2,3.26-10.33,8.57-5.83,9.89s-2,10.44,1.65,7,7.91-3.85,7.91-5.05,10.88-16.59.77-15.05S144.13,339.89,144.13,339.89Z"/>
        <path class="cls-7" d="M182.69,352.68c-1.87.22-2-6.1-2-6.1a64.25,64.25,0,0,0-2.09-7,1,1,0,0,1-.45-1.49c.12-.17.47-.51,2.3-.16,3.39.64,3.92,2.1,5.63,2,2.33-.13,3.51-2.95,4.28-2.55.56.29.21,1.84-.09,3.61-1,5.88-1.14,8.94-.13,11.67.75,2,6.62,4.77.43,3.46S184.11,352.52,182.69,352.68Z"/>
        <path class="cls-7" d="M171,348.44c7.18,7.48,9.89,11.62,10.59,8.2s-.66-9.24-.66-9.24l-2.09-7s-6-5.84-9.92-1.93"/>
        <path class="cls-7" d="M168.19,355.39c-.88,3.19-.55,1.21-7-5.49l.4-11.48a9.24,9.24,0,0,0,5.75-.17c2.31-1.1,2,5.16,4.07,5.38S169.07,352.2,168.19,355.39Z"/>
        <path class="cls-7" d="M161.82,349.74s-2.09-3.08-5.93,4-3.08,8.46-5.82,3.08c-2.68-5.23,1-17.19,6.26-19.6a1.39,1.39,0,0,1,.88-.08l3.09.63a1.51,1.51,0,0,1,1.2,1.58c-.14,2.45.51,7.46,2,8.69C165.56,349.78,161.82,349.74,161.82,349.74Z"/>
        <path class="cls-7" d="M196.08,359c-1.23,1.39-3.61,2.87-4.75,2.2-1.63-1,.67-5.46-2-8.57-.87-1-2.35-2-2.11-2.45a15.68,15.68,0,0,0,.68-4c-.22-.43-2.31-7.15-2.31-7.15a5.32,5.32,0,0,1,.6-.81c2-2.19,5.35-2,6.34-1.89C193.67,338.35,201.42,353,196.08,359Z"/>
      </g>
      <path class="cls-8" d="M173.85,107.19a87.75,87.75,0,0,0-10.93-.7c-1.66,0-3.32.05-5,.14,0-7.48,0-14.41,0-20.84.07-8.33.21-15.66.39-22.14l13.39-.06c.34,6.82.71,14.44,1.12,23C173.19,92.89,173.51,99.73,173.85,107.19Z"/>
      <polygon points="173.57 78.37 172.65 78.3 172.41 78.28 155.53 76.97 155.64 75.45 167.8 76.38 172.67 76.76 173.47 76.82 173.57 78.37"/>
      <polygon points="172.99 76.89 172.65 78.3 172.41 78.28 167.8 76.38 157.25 72.05 157.12 72 157.21 70.64 157.69 70.68 161.93 72.4 172.67 76.76 172.99 76.89"/>
      <polygon points="173.42 73.26 161.93 72.4 157.25 72.05 157.12 72 157.21 70.64 157.69 70.68 173.34 71.83 173.42 73.26"/>
      <polygon points="174.62 87.4 154.88 85.72 154.76 87.57 174.75 89.3 174.62 87.4"/>
      <polygon points="174.5 84.07 174.22 84.14 163.03 86.41 163.01 86.41 156.57 87.73 156.54 87.73 156.54 87.72 156.26 85.94 156.63 85.87 156.63 85.87 167.85 83.61 173.99 82.38 174.4 82.41 174.5 84.07"/>
      <polygon points="174.5 84.07 174.22 84.14 167.85 83.61 156.51 82.67 156.62 80.96 173.99 82.38 174.4 82.41 174.5 84.07"/>
      <path class="cls-9" d="M133.4,61.16c-3.46,1.76-7,3.55-10.82,4.17a18.94,18.94,0,0,1-10.44-1.25c2.93.72,6.13.28,8.9,1.48,1.25.53,2.34,1.38,3.56,2a11.52,11.52,0,0,0,7.26.74,18.79,18.79,0,0,0,6.73-3,13.28,13.28,0,0,0,5-5.57"/>
      <path class="cls-9" d="M179.26,58.42a26.13,26.13,0,0,0,2.65,13.26,71.7,71.7,0,0,0,7.21,11.6C180.28,82,172.9,75.65,166.89,69"/>
      <polygon points="175.24 101.45 155.25 99.72 155.38 97.86 169.49 99.06 157.68 93.68 156.74 93.6 156.84 91.89 157.6 91.95 158.39 92.02 174.62 93.34 174.74 95.08 162.95 94.11 174.7 99.51 175.12 99.7 175.13 99.78 175.24 101.45"/>
      <g>
        <path class="cls-7" d="M198.5,55.44a44.28,44.28,0,0,1-10.15.3,5.84,5.84,0,0,1,1.55-2.2c2.36-2.07,5.61-1.3,6-1.2a4.48,4.48,0,0,0-1.7-2.3,5,5,0,0,0-4.51-.31,15.91,15.91,0,0,0,7.31-8.8,15.06,15.06,0,0,0,.5-6.9,10.05,10.05,0,0,1-2.7,4,10.17,10.17,0,0,1-5.4,2.5c.49-2.7.91-4.93,1.2-6.5,1.31-7.07,1.64-8.64,2.6-10.61a20.06,20.06,0,0,1,4.68-6.11,17.28,17.28,0,0,0-7.48,5c-1.85,2.19-2.08,3.72-3.3,5.4s-3.42,3.5-7.76,4.51a31.9,31.9,0,0,1-5.21.69,9.38,9.38,0,0,1-2.2-2.27,7.78,7.78,0,0,1-1.44-4.53,8,8,0,0,1,1.9-5,5.32,5.32,0,0,0-4,1.5,4.56,4.56,0,0,0-.51.65s0,0,0,.05a15.71,15.71,0,0,1,0,5.85,5.66,5.66,0,0,1,0-5.9A15.66,15.66,0,0,0,165,16.82a14.79,14.79,0,0,1-1,6.7,14.56,14.56,0,0,1-1.14,2.27,15,15,0,0,1-3.56,3.93,21.57,21.57,0,0,1-6.14-2.06,19.15,19.15,0,0,1-2-1.14A22.86,22.86,0,0,1,142,13.71a95.76,95.76,0,0,0,2.14,31.52,15.5,15.5,0,0,0-5.85-7.2,15.24,15.24,0,0,0-6.75-2.4c.49.17,4.58,1.67,5.55,5.5a7,7,0,0,1,.08,2.92,12.44,12.44,0,0,0-6-1.73h-.32a12.51,12.51,0,0,0-6.36,1.74,13.87,13.87,0,0,1,6.51.59c1,.35,6.53,2.27,6.9,6.23a5.67,5.67,0,0,1-1,3.6,34,34,0,0,0-10.63-5.4l-.86-.24a34,34,0,0,0-12.53-1c9.82,6.15,13.86,12.38,15.69,17.11,1,2.46,2.13,6.66,5.06,7.35-5.87,2.76-8,4-7.83,4.43.43,1.12,20.07-6.4,21.39-3.73.61,1.26-3,4.41-7.91,8a22.1,22.1,0,0,0,12-4.1,21.76,21.76,0,0,0,5.6-6l15.59,1a25.46,25.46,0,0,0,14.63,3A25,25,0,0,0,196.4,72c-.25,0-3.52.44-5.49-1.92a5.5,5.5,0,0,1-1.21-2.91c-.52-1.27-1-3-.21-4.29,1.68-2.59,7-.19,12.21-2.4,2.21-1,5-3,7.31-7.91A44.07,44.07,0,0,1,198.5,55.44ZM133.64,72.25c1.76-.83,3.86-1.79,6.34-2.9C138.28,71,135.91,72.77,133.64,72.25Z"/>
        <path class="cls-7" d="M140,69.35c-1.7,1.64-4.07,3.42-6.34,2.9C135.4,71.42,137.5,70.46,140,69.35Z"/>
        <path class="cls-7" d="M167.91,29.17a5.66,5.66,0,0,1,0-5.9s0,0,0,.05A15.71,15.71,0,0,1,167.91,29.17Z"/>
        <path class="cls-9" d="M178.66,27.47a44.65,44.65,0,0,0,.68,4.76,31.9,31.9,0,0,1-5.21.69,9.38,9.38,0,0,1-2.2-2.27c6.42-18.08,8.4-22.36,8.84-22.22C181.36,8.62,177.71,16.43,178.66,27.47Z"/>
        <path class="cls-6" d="M162.85,25.79a15,15,0,0,1-3.56,3.93,21.57,21.57,0,0,1-6.14-2.06c3.38-22.18-4.2-41.53,5-14.35C159.78,18.15,161.36,22.28,162.85,25.79Z"/>
        <path class="cls-6" d="M136.9,54.47a34,34,0,0,0-10.63-5.4l-.86-.24c-3.22-14.69-15.77-27.7.71-11.22,1.71,1.71,3.42,3.27,5.1,4.71h-.32a12.51,12.51,0,0,0-6.36,1.74,13.87,13.87,0,0,1,6.51.59c1,.35,6.53,2.27,6.9,6.23A5.67,5.67,0,0,1,136.9,54.47Z"/>
      </g>
      <path d="M136.31,249.92a33.21,33.21,0,0,0-4.29-4c-2.79-2.16-9.16-7.3-15.88-6.14-2.39.41-1.2,1-11.7,8.07-3,2-5.41,3.51-7.91,6.58-1.79,2.19-4.11,5.77-3.36,6.68.3.36,1.24.48,4.55-1.38a60,60,0,0,1,10.67-6.62c3.8-1.83,5.9-2.94,9.07-3.34a28.12,28.12,0,0,1,8.16.35c2.8.49,5.85,1.32,5.85,1.32,3.41.92,5.14,1.66,5.61,1C137.3,252.15,137.31,251.5,136.31,249.92Z"/>
      <path d="M189.25,249.92a33.21,33.21,0,0,1,4.29-4c2.79-2.16,9.16-7.3,15.88-6.14,2.39.41,1.2,1,11.7,8.07,3,2,5.41,3.51,7.91,6.58,1.79,2.19,4.11,5.77,3.36,6.68-.3.36-1.24.48-4.55-1.38a60,60,0,0,0-10.67-6.62c-3.8-1.83-5.9-2.94-9.07-3.34a28.12,28.12,0,0,0-8.16.35c-2.8.49-5.85,1.32-5.85,1.32-3.41.92-5.14,1.66-5.61,1C188.26,252.15,188.25,251.5,189.25,249.92Z"/>
      <g>
        <path class="cls-6" d="M51.37,175.41c-9.19-.28-12.71-2.52,0,7.11S70.65,197,70.65,197s3.47.89,3.37-2.34,2-1.32,2-1.32"/>
        <path class="cls-6" d="M60.64,171.67a8.84,8.84,0,0,0-4.87-1.24c-2.86.11-12-3.1-11.43-1.16s3.19,4.84,9.78,8.22,23.07,16.66,23.73,18.87,2.12-1.78,1.54-3.84a9.1,9.1,0,0,0-.92-2.49"/>
        <path class="cls-6" d="M77.86,178.67C60.71,165,52.14,158.14,51.24,159.24c-.31.38.67,2.06,3.1,5,11,13.52,15.27,16,19.89,19.67,3.59,2.82,3.58,6.3,5.06,6.83a2.27,2.27,0,0,0,1.75-.36,5.07,5.07,0,0,0,2.49-3.37C84.25,183.84,79.68,180.12,77.86,178.67Z"/>
        <path class="cls-6" d="M77.8,168.6c-15.66-12.34-24.34-19.69-9.72-2.5S85.44,192.49,87.2,190s3.74-1.46,2.33-3.26"/>
        <path class="cls-6" d="M86.19,169.27c-11.52-7.52-16.9-14.44-4,6.55S92.52,187.47,97.38,185"/>
        <path class="cls-6" d="M98.87,175.82c-12.56-10-20.36-16.58-6.62,2.43s8.81,6.75,8.81,6.75"/>
        <path class="cls-6" d="M111.15,182.08C100.38,169.44,96.87,162,99.94,180s7.58,3.47,11.76,4.07S111.15,182.08,111.15,182.08Z"/>
        <path class="cls-6" d="M121,182.47c-13.43-11.82-19.14-17.87-11.34-3s1.85,5.57,13.83,9.6"/>
        <path class="cls-6" d="M134.16,188.22C120.55,177,117,171.85,122,185.14s5.72,10,13.68,9.49"/>
        <path class="cls-6" d="M145,198.66s-2.06,4.53-2.72,4-5.35-3.87-6.92-8.9-1.48-9.23-.41-9.81C135,184,138.08,186.46,145,198.66Z"/>
      </g>
      <g>
        <path class="cls-7" d="M54.37,179.41c-9.19-.28-12.71-2.52,0,7.11S73.65,201,73.65,201s3.47.89,3.37-2.34,2-1.32,2-1.32"/>
        <path class="cls-7" d="M63.64,175.67a8.84,8.84,0,0,0-4.87-1.24c-2.86.11-12-3.1-11.43-1.16s3.19,4.84,9.78,8.22,23.07,16.66,23.73,18.87,2.12-1.78,1.54-3.84a9.1,9.1,0,0,0-.92-2.49"/>
        <path class="cls-7" d="M80.86,182.67C63.71,169,55.14,162.14,54.24,163.24c-.31.38.67,2.06,3.1,5,11,13.52,15.27,16,19.89,19.67,3.59,2.82,3.58,6.3,5.06,6.83a2.27,2.27,0,0,0,1.75-.36,5.07,5.07,0,0,0,2.49-3.37C87.25,187.84,82.68,184.12,80.86,182.67Z"/>
        <path class="cls-7" d="M80.8,172.6c-15.66-12.34-24.34-19.69-9.72-2.5S88.44,196.49,90.2,194s3.74-1.46,2.33-3.26"/>
        <path class="cls-7" d="M89.19,173.27c-11.52-7.52-16.9-14.44-4,6.55s10.38,11.65,15.24,9.17"/>
        <path class="cls-7" d="M101.87,179.82c-12.56-10-20.36-16.58-6.62,2.43s8.81,6.75,8.81,6.75"/>
        <path class="cls-7" d="M114.15,186.08C103.38,173.44,99.87,166,102.94,184s7.58,3.47,11.76,4.07S114.15,186.08,114.15,186.08Z"/>
        <path class="cls-7" d="M124,186.47c-13.43-11.82-19.14-17.87-11.34-3s1.85,5.57,13.83,9.6"/>
        <path class="cls-7" d="M137.16,192.22C123.55,181,120,175.85,125,189.14s5.72,10,13.68,9.49"/>
        <path class="cls-7" d="M148,202.66s-2.06,4.53-2.72,4-5.35-3.87-6.92-8.9-1.48-9.23-.41-9.81C138,188,141.08,190.46,148,202.66Z"/>
      </g>
      <g>
        <path class="cls-6" d="M272.48,175.41c9.6-.28,13.29-2.62,0,7.44S252.31,198,252.31,198s-3.63.93-3.52-2.45-2.09-1.37-2.09-1.37"/>
        <path class="cls-6" d="M261.37,172.67a8.84,8.84,0,0,1,4.87-1.24c2.86.11,12-3.1,11.43-1.16s-3.19,4.84-9.78,8.22-23.07,16.66-23.73,18.87-2.12-1.78-1.54-3.84a8.87,8.87,0,0,1,.92-2.49"/>
        <path class="cls-6" d="M244.14,179.67c17.15-13.69,25.72-20.53,26.62-19.43.31.38-.67,2.06-3.1,5-11,13.52-15.27,16-19.89,19.67-3.59,2.82-3.58,6.3-5.06,6.83a2.27,2.27,0,0,1-1.75-.36,5.07,5.07,0,0,1-2.49-3.37C237.76,184.84,242.33,181.12,244.14,179.67Z"/>
        <path class="cls-6" d="M244.21,169.6c15.66-12.34,24.34-19.69,9.72-2.5S236.57,193.49,234.81,191s-3.74-1.46-2.33-3.26"/>
        <path class="cls-6" d="M235.82,170.27c11.52-7.52,16.9-14.44,4.05,6.55s-10.38,11.65-15.24,9.17"/>
        <path class="cls-6" d="M223.13,176.82c12.56-10,20.36-16.58,6.62,2.43s-8.81,6.75-8.81,6.75"/>
        <path class="cls-6" d="M210.86,183.08c10.77-12.64,14.28-20.11,11.21-2.09s-7.58,3.47-11.76,4.07S210.86,183.08,210.86,183.08Z"/>
        <path class="cls-6" d="M201,183.47c13.43-11.82,19.14-17.87,11.34-3S210.48,186,198.5,190"/>
        <path class="cls-6" d="M187.84,189.22C201.45,178,205,172.85,200,186.14s-5.72,10-13.68,9.49"/>
        <path class="cls-6" d="M186.64,194.8c-1.57,5-6.26,8.41-6.92,8.9s-2.72-4-2.72-4c6.92-12.2,10.05-14.67,10.05-14.67C188.12,185.57,188.2,189.77,186.64,194.8Z"/>
      </g>
      <g>
        <path class="cls-7" d="M273.48,178.41c9.6-.28,13.29-2.62,0,7.44S253.31,201,253.31,201s-3.63.93-3.52-2.45-2.09-1.37-2.09-1.37"/>
        <path class="cls-7" d="M262.37,175.67a8.84,8.84,0,0,1,4.87-1.24c2.86.11,12-3.1,11.43-1.16s-3.19,4.84-9.78,8.22-23.07,16.66-23.73,18.87-2.12-1.78-1.54-3.84a8.87,8.87,0,0,1,.92-2.49"/>
        <path class="cls-7" d="M245.14,182.67c17.15-13.69,25.72-20.53,26.62-19.43.31.38-.67,2.06-3.1,5-11,13.52-15.27,16-19.89,19.67-3.59,2.82-3.58,6.3-5.06,6.83a2.27,2.27,0,0,1-1.75-.36,5.07,5.07,0,0,1-2.49-3.37C238.76,187.84,243.33,184.12,245.14,182.67Z"/>
        <path class="cls-7" d="M245.21,172.6c15.66-12.34,24.34-19.69,9.72-2.5S237.57,196.49,235.81,194s-3.74-1.46-2.33-3.26"/>
        <path class="cls-7" d="M236.82,173.27c11.52-7.52,16.9-14.44,4.05,6.55s-10.38,11.65-15.24,9.17"/>
        <path class="cls-7" d="M224.13,179.82c12.56-10,20.36-16.58,6.62,2.43s-8.81,6.75-8.81,6.75"/>
        <path class="cls-7" d="M211.86,186.08c10.77-12.64,14.28-20.11,11.21-2.09s-7.58,3.47-11.76,4.07S211.86,186.08,211.86,186.08Z"/>
        <path class="cls-7" d="M202,186.47c13.43-11.82,19.14-17.87,11.34-3S211.48,189,199.5,193"/>
        <path class="cls-7" d="M188.84,192.22C202.45,181,206,175.85,201,189.14s-5.72,10-13.68,9.49"/>
        <path class="cls-7" d="M187.64,197.8c-1.57,5-6.26,8.41-6.92,8.9s-2.72-4-2.72-4c6.92-12.2,10.05-14.67,10.05-14.67C189.12,188.57,189.2,192.77,187.64,197.8Z"/>
      </g>
      <path class="cls-10" d="M147.33,221.34c1.16-.23,1.4-.51,1.43-.71.35-2.49-28.85-12-59.29-10.45a127.22,127.22,0,0,0-23.81,3.54c-.76.32-1.12.59-1.1.82q.19,1.8,31.23.34l5.35.13"/>
      <g>
        <path class="cls-6" d="M182.11,464.36c-.75.1-.09,5.61-2.68,6.55-2.1.77-10.74.95-10.25-1.21,0,0,1.15-5.11,0-5.51-1.5-.53-6.81,11.14-11.61,12.08.32-3.89.16-7-1.09-7.48-1.71-.6-10.29,4.52-11.78,4.39a2.58,2.58,0,0,1-.95-.25,3,3,0,0,1-1.23-1.12c-1.3-2-1-5.54-1.49-5.59s-6.55,15.13-3.91,34a68.66,68.66,0,0,0,5,17.83,10.41,10.41,0,0,0-2,3.52c-.3.93-.63,2.44-.38,2.54s.83-.7,2.76-4.63c3,7.06,4.83,10.49,5.46,10.28q1.2-.39-3.17-17.79l.9-1.64a38.05,38.05,0,0,0,3.49-7.48c1.49-4.82,1.43-8,1.78-8,.56,0,1.31,7.91.61,16.11-.11,1.3-.32,3.28-.78,8.44-.41,4.68-.51,6-.46,6a12.21,12.21,0,0,0,.21-1.3c.39-2,1-5,1.51-8.63.5-3.32.77-5.78.87-6.67.42-3.8,1.2-9.91,2.81-20,0,0,.06-.35.07-.39a135.8,135.8,0,0,1,5.66,24.3c1.2,8.65,1.33,15.72,1.78,15.72s.7-3.52,1-18.43c1.82,9.84,2.82,12.4,3.39,12.34,1.47-.14,1.06-17.23,1.48-17.23.23,0,.19,5,1.46,11.83a55.52,55.52,0,0,0,1.49,6.09,48.27,48.27,0,0,0,2,5.51c1.76,4,4.82,9.13,5.49,8.84,1.25-.54-9.77-17.57-5.54-36a38.74,38.74,0,0,1,4-10.24c1.79,6.25,3.62,12.63,4.55,17.35.13.65.25,1.31.36,2,0,.27.16,1.11.28,2.22a81.75,81.75,0,0,1,.46,11.2c0,.35,0,.2-.08,1.44a51.22,51.22,0,0,0-.21,5.9c.34.06,1.81-5.8,2.77-12.11,0,0,.35-1.91.48-3.55C187.63,504.68,184.14,464.08,182.11,464.36Zm-38,43.55c-1.5-8.83-2.2-18.53.61-25.14.16.52.31,1,.43,1.44C147.52,492.62,146.19,501.09,144.12,507.91Z"/>
        <path class="cls-6" d="M144.87,512q-.39-2-.75-4"/>
      </g>
      <g>
        <path class="cls-7" d="M145.22,509.73c-1.5-8.83-2.2-18.53.61-25.14.16.52.31,1,.43,1.44,2.36,8.41,1,16.88-1,23.7q.36,2.07.75,4l.9-1.64a38.05,38.05,0,0,0,3.49-7.48c1.45-4.72,1.5-8,1.78-8s.75,7.15,0,15.84c-.8,9-2.22,13.35-1.93,13.42s3.86-18.88,6.72-35.31c0-.13,0-.25.07-.39a116,116,0,0,1,5.66,24.3c1,9.3.08,14.51.74,14.57s1.32-7.27,2.08-17.28c.6,6.44,1.73,11,2.4,11.06,1.32.18,1.71-16.13,2.47-16,.41.1.13,4.72,1.46,11.83a44,44,0,0,0,3.48,11.6c1.67,3.53,4.69,8.33,5.5,8,1.52-.67-10-17.42-5.55-35.08a51,51,0,0,1,4-10.24c1.79,6.25,3.62,12.63,4.55,17.35.25,1.28.47,2.65.64,4.24a49.24,49.24,0,0,1-.2,12.22c-.52,3.46-1.16,5-.93,5.09.42.09,3-4.92,4.07-10.88a32.53,32.53,0,0,0,.48-3.55c.89-11-2.6-51.55-4.63-51.27-.75.1-.09,5.61-2.68,6.55-2.1.77-10.74.95-10.25-1.21,0,0,1.15-5.11,0-5.51-1.5-.53-6.81,11.14-11.61,12.08.32-3.89.16-7-1.09-7.48-1.71-.6-10.29,4.52-11.78,4.39a2.58,2.58,0,0,1-1-.25,3,3,0,0,1-1.23-1.12c-1.3-2-1-5.54-1.49-5.59-1.07-.1-6.36,15.29-3.91,34a76.45,76.45,0,0,0,3.92,16.06"/>
        <path class="cls-7" d="M145.22,509.73q.36,2.07.75,4c1.88,9.41,4.23,17,3.35,17.28-.71.24-3.77-4.15-6.58-11.38q-.31-.78-.6-1.59"/>
        <path class="cls-7" d="M142.14,518.09c-1.6,3.72-2.83,6-2.41,6.2.26.11,1.23-1.44,3-4.61"/>
        <path class="cls-7" d="M146,513.78q-.39-2-.75-4"/>
      </g>
      <path class="cls-10" d="M178.24,221.34c-1.17-.23-1.41-.51-1.43-.71-.35-2.49,28.85-12,59.28-10.45a127.22,127.22,0,0,1,23.81,3.54c.76.32,1.13.59,1.1.82q-.18,1.8-31.23.34l-5.35.13"/>
      <g>
        <path class="cls-11" d="M101.24,264.6a56.07,56.07,0,0,1,30.36-6.77"/>
        <path class="cls-11" d="M111.39,266.9c2.51-.43,4.76-1.75,7.13-2.67a23.35,23.35,0,0,1,6.55-1.49"/>
        <path class="cls-11" d="M103.68,267.71c3.86-1.87,7.64-3.94,11.65-5.46a27.59,27.59,0,0,1,12.6-2"/>
      </g>
      <g>
        <path class="cls-11" d="M224.32,264.6A56,56,0,0,0,194,257.83"/>
        <path class="cls-11" d="M214.18,266.9c-2.51-.43-4.76-1.75-7.13-2.67a23.43,23.43,0,0,0-6.55-1.49"/>
        <path class="cls-11" d="M221.89,267.71c-3.86-1.87-7.64-3.94-11.65-5.46a27.59,27.59,0,0,0-12.6-2"/>
      </g>
      <g>
        <path class="cls-11" d="M146.73,448.07a123,123,0,0,0,35.17-1.16"/>
        <path class="cls-11" d="M150,454a105,105,0,0,0,28.56-2.39l.36-.08"/>
        <path class="cls-11" d="M156.67,458.1A46.28,46.28,0,0,0,170.79,457"/>
        <path class="cls-11" d="M160.4,462.38a42.83,42.83,0,0,0,4.94-.08"/>
      </g>
      <g>
        <path class="cls-11" d="M110.31,418.79q-3.72-7.35-6.75-15c-2-5-3.76-10.37-2.86-15.67"/>
        <path class="cls-11" d="M99.68,414.91a410.53,410.53,0,0,0-11.52-40.15"/>
      </g>
      <g>
        <path class="cls-11" d="M215.26,418.79q3.72-7.35,6.75-15c2-5,3.76-10.37,2.85-15.67"/>
        <path class="cls-11" d="M225.89,414.91a410.53,410.53,0,0,1,11.52-40.15"/>
      </g>
      <path class="cls-12" d="M135.25,118.48a42.59,42.59,0,0,1,11,1.16c9.58,2.33,12.24,6.61,19.64,6.22a26.5,26.5,0,0,0,9.28-2.46c4.32-2.06,4.95-3.91,9.33-5.19.79-.23,2.87-.57,7-1.27,4.71-.78,6.35-1,6.36-1.32s-2.92-1-5.3-1.13a22.19,22.19,0,0,0-7.34.91,25.6,25.6,0,0,0-5.48,2.44c-4,2.27-3.94,3.32-7.1,4.82a15.2,15.2,0,0,1-7.15,1.74c-1.92-.06-2.89-.47-6.77-2A104.59,104.59,0,0,0,148,118.55a48.73,48.73,0,0,0-9.13-1.39c-1.16-.11-2.21-.18-3.25-.22a72.82,72.82,0,0,0-10.58.19c-3.11.3-3.93.62-4,1s.31.45.6.6"/>
      <path class="cls-13" d="M104.3,132.09c16.22-1.14,33.09-2.18,48.18,3.89,2.28.92,4.51,2,6.86,2.76,10.29,3.34,21.52.23,31.59-3.74s20.12-8.89,30.94-9.23"/>
      <path d="M120.74,117c.93-.11,2.29-.25,4-.39,6.66-.56,11.76-1,18.12-.19a42.09,42.09,0,0,1,11,2.45c1.59.61,4,1.69,8.2,3.16a14.57,14.57,0,0,0,6.51,1.2,13.38,13.38,0,0,0,4-1.08c1.9-.84,2.77-1.75,4.63-3.18a18,18,0,0,1,5.42-3.57c7.6-3.21,15.38-.11,15.34.25s-7.3-2.49-14.48.93c-2.4,1.14-2.53,1.91-8.12,5.06-4.46,2.51-6.06,3-7.7,3.09-2.18.16-3.79-.34-6.91-1.3-3.54-1.1-4.23-1.79-7.43-3a46.07,46.07,0,0,0-10.62-2.6,75.54,75.54,0,0,0-9.92-.25c-2.91,0-6.86.11-11.58.33"/>
      <path class="cls-13" d="M82.51,151.27a194.85,194.85,0,0,1,57,5.47"/>
      <path class="cls-13" d="M184.26,162.2a125.11,125.11,0,0,1,50.59-14.66"/>
    </g>
  </g>
</svg>
