<svg id="ping" viewBox="0 0 190.5 130.5" width="19px" height="13px">
  <g class="col-1">
    <g class="z-0">
      <rect x="180.25" y="120.25" width="10" height="10" />
      <rect x="180.25" y="110.25" width="10" height="10" />
      <rect x="180.25" y="100.25" width="10" height="10" />
      <rect x="180.25" y="90.25" width="10" height="10" />
      <rect x="180.25" y="80.25" width="10" height="10" />
      <rect x="180.25" y="70.25" width="10" height="10" />
      <rect x="180.25" y="60.25" width="10" height="10" />
      <rect x="180.25" y="50.25" width="10" height="10" />
      <rect x="180.25" y="40.25" width="10" height="10" />
      <rect x="180.25" y="30.25" width="10" height="10" />
      <rect x="180.25" y="20.25" width="10" height="10" />
      <rect x="180.25" y="10.25" width="10" height="10" />
      <rect x="170.25" y="120.25" width="10" height="10" />
    </g>
    <g class="z-1">
      <rect x="170.25" y="110.25" width="10" height="10" />
      <rect x="170.25" y="100.25" width="10" height="10" />
      <rect x="170.25" y="90.25" width="10" height="10" />
      <rect x="170.25" y="80.25" width="10" height="10" />
      <rect x="170.25" y="70.25" width="10" height="10" />
      <rect x="170.25" y="60.25" width="10" height="10" />
      <rect x="170.25" y="50.25" width="10" height="10" />
      <rect x="170.25" y="40.25" width="10" height="10" />
      <rect x="170.25" y="30.25" width="10" height="10" />
      <rect x="170.25" y="20.25" width="10" height="10" />
      <rect x="170.25" y="10.25" width="10" height="10" />
      <rect x="170.25" y=".25" width="10" height="10" />
      <rect x="160.25" y="110.25" width="10" height="10" />
      <rect x="160.25" y="100.25" width="10" height="10" />
      <rect x="160.25" y="90.25" width="10" height="10" />
      <rect x="160.25" y="80.25" width="10" height="10" />
      <rect x="160.25" y="70.25" width="10" height="10" />
      <rect x="160.25" y="60.25" width="10" height="10" />
      <rect x="160.25" y="50.25" width="10" height="10" />
      <rect x="160.25" y="40.25" width="10" height="10" />
      <rect x="160.25" y="30.25" width="10" height="10" />
      <rect x="160.25" y="20.25" width="10" height="10" />
      <rect x="160.25" y="10.25" width="10" height="10" />
      <rect x="160.25" y=".25" width="10" height="10" />
    </g>
  </g>

  <g class="col-2">
    <g class="z-0">
      <rect x="140.25" y="120.25" width="10" height="10" />
      <rect x="140.25" y="110.25" width="10" height="10" />
      <rect x="140.25" y="100.25" width="10" height="10" />
      <rect x="140.25" y="90.25" width="10" height="10" />
      <rect x="140.25" y="80.25" width="10" height="10" />
      <rect x="140.25" y="70.25" width="10" height="10" />
      <rect x="140.25" y="60.25" width="10" height="10" />
      <rect x="140.25" y="50.25" width="10" height="10" />
      <rect x="140.25" y="40.25" width="10" height="10" />
      <rect x="140.25" y="30.25" width="10" height="10" />
      <rect x="130.25" y="120.25" width="10" height="10" />
    </g>
    <g class="z-1">
      <rect x="130.25" y="110.25" width="10" height="10" />
      <rect x="130.25" y="100.25" width="10" height="10" />
      <rect x="130.25" y="90.25" width="10" height="10" />
      <rect x="130.25" y="80.25" width="10" height="10" />
      <rect x="130.25" y="70.25" width="10" height="10" />
      <rect x="130.25" y="60.25" width="10" height="10" />
      <rect x="130.25" y="50.25" width="10" height="10" />
      <rect x="130.25" y="40.25" width="10" height="10" />
      <rect x="130.25" y="30.25" width="10" height="10" />
      <rect x="130.25" y="20.25" width="10" height="10" />
      <rect x="120.25" y="110.25" width="10" height="10" />
      <rect x="120.25" y="100.25" width="10" height="10" />
      <rect x="120.25" y="90.25" width="10" height="10" />
      <rect x="120.25" y="80.25" width="10" height="10" />
      <rect x="120.25" y="70.25" width="10" height="10" />
      <rect x="120.25" y="60.25" width="10" height="10" />
      <rect x="120.25" y="50.25" width="10" height="10" />
      <rect x="120.25" y="40.25" width="10" height="10" />
      <rect x="120.25" y="30.25" width="10" height="10" />
      <rect x="120.25" y="20.25" width="10" height="10" />
    </g>
  </g>

  <g class="col-3">
    <g class="z-0">
      <rect x="100.25" y="120.25" width="10" height="10" />
      <rect x="100.25" y="110.25" width="10" height="10" />
      <rect x="100.25" y="100.25" width="10" height="10" />
      <rect x="100.25" y="90.25" width="10" height="10" />
      <rect x="100.25" y="80.25" width="10" height="10" />
      <rect x="100.25" y="70.25" width="10" height="10" />
      <rect x="100.25" y="60.25" width="10" height="10" />
      <rect x="100.25" y="50.25" width="10" height="10" />
      <rect x="90.25" y="120.25" width="10" height="10" />
    </g>
    <g class="z-1">
      <rect x="90.25" y="110.25" width="10" height="10" />
      <rect x="90.25" y="100.25" width="10" height="10" />
      <rect x="90.25" y="90.25" width="10" height="10" />
      <rect x="90.25" y="80.25" width="10" height="10" />
      <rect x="90.25" y="70.25" width="10" height="10" />
      <rect x="90.25" y="60.25" width="10" height="10" />
      <rect x="90.25" y="50.25" width="10" height="10" />
      <rect x="90.25" y="40.25" width="10" height="10" />
      <rect x="80.25" y="110.25" width="10" height="10" />
      <rect x="80.25" y="100.25" width="10" height="10" />
      <rect x="80.25" y="90.25" width="10" height="10" />
      <rect x="80.25" y="80.25" width="10" height="10" />
      <rect x="80.25" y="70.25" width="10" height="10" />
      <rect x="80.25" y="60.25" width="10" height="10" />
      <rect x="80.25" y="50.25" width="10" height="10" />
      <rect x="80.25" y="40.25" width="10" height="10" />
    </g>
  </g>

  <g class="col-4">
    <g class="z-0">
      <rect x="60.25" y="120.25" width="10" height="10" />
      <rect x="60.25" y="110.25" width="10" height="10" />
      <rect x="60.25" y="100.25" width="10" height="10" />
      <rect x="60.25" y="90.25" width="10" height="10" />
      <rect x="60.25" y="80.25" width="10" height="10" />
      <rect x="60.25" y="70.25" width="10" height="10" />
      <rect x="50.25" y="120.25" width="10" height="10" />
    </g>
    <g class="z-1">
      <rect x="50.25" y="110.25" width="10" height="10" />
      <rect x="50.25" y="100.25" width="10" height="10" />
      <rect x="50.25" y="90.25" width="10" height="10" />
      <rect x="50.25" y="80.25" width="10" height="10" />
      <rect x="50.25" y="70.25" width="10" height="10" />
      <rect x="50.25" y="60.25" width="10" height="10" />
      <rect x="40.25" y="110.25" width="10" height="10" />
      <rect x="40.25" y="100.25" width="10" height="10" />
      <rect x="40.25" y="90.25" width="10" height="10" />
      <rect x="40.25" y="80.25" width="10" height="10" />
      <rect x="40.25" y="70.25" width="10" height="10" />
      <rect x="40.25" y="60.25" width="10" height="10" />
    </g>
  </g>

  <g class="col-5">
    <g class="z-0">
      <rect x="20.25" y="120.25" width="10" height="10" />
      <rect x="20.25" y="110.25" width="10" height="10" />
      <rect x="20.25" y="100.25" width="10" height="10" />
      <rect x="20.25" y="90.25" width="10" height="10" />
      <rect x="20.25" y="80.25" width="10" height="10" />
      <rect x="10.25" y="120.25" width="10" height="10" />
    </g>
    <g class="z-1">
      <rect x="10.25" y="110.25" width="10" height="10" />
      <rect x="10.25" y="100.25" width="10" height="10" />
      <rect x="10.25" y="90.25" width="10" height="10" />
      <rect x="10.25" y="80.25" width="10" height="10" />
      <rect x="10.25" y="70.25" width="10" height="10" />
      <rect x=".25" y="110.25" width="10" height="10" />
      <rect x=".25" y="100.25" width="10" height="10" />
      <rect x=".25" y="90.25" width="10" height="10" />
      <rect x=".25" y="80.25" width="10" height="10" />
      <rect x=".25" y="70.25" width="10" height="10" />
    </g>
  </g>
  <defs>
    <style>
        .z-0 {
          fill: #383838; stroke: #383838;
        }

        .z-1 {
          fill: #5c5b5c; stroke: #5c5b5c
        }

        .hl .z-0 {
          fill: #048837; stroke: #048837;
        }

        .hl .z-1 {
          fill: #68b42e; stroke: #68b42e
        }  
      </style>
  </defs>
  <!-- <script type="text/javascript">
      var i = 1;                
  
      function myLoop() {         
        setTimeout(function() {   
          console.log('hello');  
          i++;                   
          if (i < 10) {      
            myLoop();        
          }                       
        }, 3000)
      }
      
      myLoop();              
    </script> -->
</svg>