<svg id="pinging" viewBox="0 0 190.5 130.5" width="19px" height="13px">
  <g class="col-5">
    <g class="z-0">
      <rect x="180.25" y="120.25" width="10" height="10" />
      <rect x="180.25" y="110.25" width="10" height="10" />
      <rect x="180.25" y="100.25" width="10" height="10" />
      <rect x="180.25" y="90.25" width="10" height="10" />
      <rect x="180.25" y="80.25" width="10" height="10" />
      <rect x="180.25" y="70.25" width="10" height="10" />
      <rect x="180.25" y="60.25" width="10" height="10" />
      <rect x="180.25" y="50.25" width="10" height="10" />
      <rect x="180.25" y="40.25" width="10" height="10" />
      <rect x="180.25" y="30.25" width="10" height="10" />
      <rect x="180.25" y="20.25" width="10" height="10" />
      <rect x="180.25" y="10.25" width="10" height="10" />
      <rect x="170.25" y="120.25" width="10" height="10" />
    </g>
    <g class="z-1">
      <rect x="170.25" y="110.25" width="10" height="10" />
      <rect x="170.25" y="100.25" width="10" height="10" />
      <rect x="170.25" y="90.25" width="10" height="10" />
      <rect x="170.25" y="80.25" width="10" height="10" />
      <rect x="170.25" y="70.25" width="10" height="10" />
      <rect x="170.25" y="60.25" width="10" height="10" />
      <rect x="170.25" y="50.25" width="10" height="10" />
      <rect x="170.25" y="40.25" width="10" height="10" />
      <rect x="170.25" y="30.25" width="10" height="10" />
      <rect x="170.25" y="20.25" width="10" height="10" />
      <rect x="170.25" y="10.25" width="10" height="10" />
      <rect x="170.25" y=".25" width="10" height="10" />
      <rect x="160.25" y="110.25" width="10" height="10" />
      <rect x="160.25" y="100.25" width="10" height="10" />
      <rect x="160.25" y="90.25" width="10" height="10" />
      <rect x="160.25" y="80.25" width="10" height="10" />
      <rect x="160.25" y="70.25" width="10" height="10" />
      <rect x="160.25" y="60.25" width="10" height="10" />
      <rect x="160.25" y="50.25" width="10" height="10" />
      <rect x="160.25" y="40.25" width="10" height="10" />
      <rect x="160.25" y="30.25" width="10" height="10" />
      <rect x="160.25" y="20.25" width="10" height="10" />
      <rect x="160.25" y="10.25" width="10" height="10" />
      <rect x="160.25" y=".25" width="10" height="10" />
    </g>
  </g>

  <g class="col-4">
    <g class="z-0">
      <rect x="140.25" y="120.25" width="10" height="10" />
      <rect x="140.25" y="110.25" width="10" height="10" />
      <rect x="140.25" y="100.25" width="10" height="10" />
      <rect x="140.25" y="90.25" width="10" height="10" />
      <rect x="140.25" y="80.25" width="10" height="10" />
      <rect x="140.25" y="70.25" width="10" height="10" />
      <rect x="140.25" y="60.25" width="10" height="10" />
      <rect x="140.25" y="50.25" width="10" height="10" />
      <rect x="140.25" y="40.25" width="10" height="10" />
      <rect x="140.25" y="30.25" width="10" height="10" />
      <rect x="130.25" y="120.25" width="10" height="10" />
    </g>
    <g class="z-1">
      <rect x="130.25" y="110.25" width="10" height="10" />
      <rect x="130.25" y="100.25" width="10" height="10" />
      <rect x="130.25" y="90.25" width="10" height="10" />
      <rect x="130.25" y="80.25" width="10" height="10" />
      <rect x="130.25" y="70.25" width="10" height="10" />
      <rect x="130.25" y="60.25" width="10" height="10" />
      <rect x="130.25" y="50.25" width="10" height="10" />
      <rect x="130.25" y="40.25" width="10" height="10" />
      <rect x="130.25" y="30.25" width="10" height="10" />
      <rect x="130.25" y="20.25" width="10" height="10" />
      <rect x="120.25" y="110.25" width="10" height="10" />
      <rect x="120.25" y="100.25" width="10" height="10" />
      <rect x="120.25" y="90.25" width="10" height="10" />
      <rect x="120.25" y="80.25" width="10" height="10" />
      <rect x="120.25" y="70.25" width="10" height="10" />
      <rect x="120.25" y="60.25" width="10" height="10" />
      <rect x="120.25" y="50.25" width="10" height="10" />
      <rect x="120.25" y="40.25" width="10" height="10" />
      <rect x="120.25" y="30.25" width="10" height="10" />
      <rect x="120.25" y="20.25" width="10" height="10" />
    </g>
  </g>

  <g class="col-3">
    <g class="z-0">
      <rect x="100.25" y="120.25" width="10" height="10" />
      <rect x="100.25" y="110.25" width="10" height="10" />
      <rect x="100.25" y="100.25" width="10" height="10" />
      <rect x="100.25" y="90.25" width="10" height="10" />
      <rect x="100.25" y="80.25" width="10" height="10" />
      <rect x="100.25" y="70.25" width="10" height="10" />
      <rect x="100.25" y="60.25" width="10" height="10" />
      <rect x="100.25" y="50.25" width="10" height="10" />
      <rect x="90.25" y="120.25" width="10" height="10" />
    </g>
    <g class="z-1">
      <rect x="90.25" y="110.25" width="10" height="10" />
      <rect x="90.25" y="100.25" width="10" height="10" />
      <rect x="90.25" y="90.25" width="10" height="10" />
      <rect x="90.25" y="80.25" width="10" height="10" />
      <rect x="90.25" y="70.25" width="10" height="10" />
      <rect x="90.25" y="60.25" width="10" height="10" />
      <rect x="90.25" y="50.25" width="10" height="10" />
      <rect x="90.25" y="40.25" width="10" height="10" />
      <rect x="80.25" y="110.25" width="10" height="10" />
      <rect x="80.25" y="100.25" width="10" height="10" />
      <rect x="80.25" y="90.25" width="10" height="10" />
      <rect x="80.25" y="80.25" width="10" height="10" />
      <rect x="80.25" y="70.25" width="10" height="10" />
      <rect x="80.25" y="60.25" width="10" height="10" />
      <rect x="80.25" y="50.25" width="10" height="10" />
      <rect x="80.25" y="40.25" width="10" height="10" />
    </g>
  </g>

  <g class="col-2">
    <g class="z-0">
      <rect x="60.25" y="120.25" width="10" height="10" />
      <rect x="60.25" y="110.25" width="10" height="10" />
      <rect x="60.25" y="100.25" width="10" height="10" />
      <rect x="60.25" y="90.25" width="10" height="10" />
      <rect x="60.25" y="80.25" width="10" height="10" />
      <rect x="60.25" y="70.25" width="10" height="10" />
      <rect x="50.25" y="120.25" width="10" height="10" />
    </g>
    <g class="z-1">
      <rect x="50.25" y="110.25" width="10" height="10" />
      <rect x="50.25" y="100.25" width="10" height="10" />
      <rect x="50.25" y="90.25" width="10" height="10" />
      <rect x="50.25" y="80.25" width="10" height="10" />
      <rect x="50.25" y="70.25" width="10" height="10" />
      <rect x="50.25" y="60.25" width="10" height="10" />
      <rect x="40.25" y="110.25" width="10" height="10" />
      <rect x="40.25" y="100.25" width="10" height="10" />
      <rect x="40.25" y="90.25" width="10" height="10" />
      <rect x="40.25" y="80.25" width="10" height="10" />
      <rect x="40.25" y="70.25" width="10" height="10" />
      <rect x="40.25" y="60.25" width="10" height="10" />
    </g>
  </g>

  <g class="col-1">
    <g class="z-0">
      <rect x="20.25" y="120.25" width="10" height="10" />
      <rect x="20.25" y="110.25" width="10" height="10" />
      <rect x="20.25" y="100.25" width="10" height="10" />
      <rect x="20.25" y="90.25" width="10" height="10" />
      <rect x="20.25" y="80.25" width="10" height="10" />
      <rect x="10.25" y="120.25" width="10" height="10" />
    </g>
    <g class="z-1">
      <rect x="10.25" y="110.25" width="10" height="10" />
      <rect x="10.25" y="100.25" width="10" height="10" />
      <rect x="10.25" y="90.25" width="10" height="10" />
      <rect x="10.25" y="80.25" width="10" height="10" />
      <rect x="10.25" y="70.25" width="10" height="10" />
      <rect x=".25" y="110.25" width="10" height="10" />
      <rect x=".25" y="100.25" width="10" height="10" />
      <rect x=".25" y="90.25" width="10" height="10" />
      <rect x=".25" y="80.25" width="10" height="10" />
      <rect x=".25" y="70.25" width="10" height="10" />
    </g>
  </g>
  <defs>
    <style>
      .col-1 .z-0 {
        animation: col1z0 .6s steps(5, jump-none) infinite alternate;
      }

      @keyframes col1z0 {
        0% {fill: #253671; stroke: #253671; stroke: #253671;}
        25% {fill: #383838; stroke: #383838; stroke: #383838;}
        50% {fill: #383838; stroke: #383838; stroke: #383838;}
        75% {fill: #383838; stroke: #383838; stroke: #383838;}
        100% {fill: #383838; stroke: #383838; stroke: #383838;}
      }

      .col-1 .z-1 {
        animation: col1z1 .6s steps(5, jump-none) infinite alternate;
      }

      @keyframes col1z1 {
        0% {fill: #3157a4; stroke: #3157a4}
        25% {fill: #5c5b5c; stroke: #5c5b5c}
        50% {fill: #5c5b5c; stroke: #5c5b5c}
        75% {fill: #5c5b5c; stroke: #5c5b5c}
        100% {fill: #5c5b5c; stroke: #5c5b5c}
      }

      .col-2 .z-0 {
        animation: col2z0 .6s steps(5, jump-none) infinite alternate;
      }

      @keyframes col2z0 {
        0% {fill: #383838; stroke: #383838}
        25% {fill: #253671; stroke: #253671}
        50% {fill: #383838; stroke: #383838}
        75% {fill: #383838; stroke: #383838}
        100% {fill: #383838; stroke: #383838}
      }

      .col-2 .z-1 {
        animation: col2z1 .6s steps(5, jump-none) infinite alternate;
      }

      @keyframes col2z1 {
        0% {fill: #5c5b5c; stroke: #5c5b5c}
        25% {fill: #3157a4; stroke: #3157a4}
        50% {fill: #5c5b5c; stroke: #5c5b5c}
        75% {fill: #5c5b5c; stroke: #5c5b5c}
        100% {fill: #5c5b5c; stroke: #5c5b5c}
      }

      .col-3 .z-0 {
        animation: col3z0 .6s steps(5, jump-none) infinite alternate;
      }

      @keyframes col3z0 {
        0% {fill: #383838; stroke: #383838}
        25% {fill: #383838; stroke: #383838}
        50% {fill: #253671; stroke: #253671}
        75% {fill: #383838; stroke: #383838}
        100% {fill: #383838; stroke: #383838}
      }

      .col-3 .z-1 {
        animation: col3z1 .6s steps(5, jump-none) infinite alternate;
      }

      @keyframes col3z1 {
        0% {fill: #5c5b5c; stroke: #5c5b5c}
        25% {fill: #5c5b5c; stroke: #5c5b5c}
        50% {fill: #3157a4; stroke: #3157a4}
        75% {fill: #5c5b5c; stroke: #5c5b5c}
        100% {fill: #5c5b5c; stroke: #5c5b5c}
      }

      .col-4 .z-0 {
        animation: col4z0 .6s steps(5, jump-none) infinite alternate;
      }

      @keyframes col4z0 {
        0% {fill: #383838; stroke: #383838}
        25% {fill: #383838; stroke: #383838}
        50% {fill: #383838; stroke: #383838}
        75% {fill: #253671; stroke: #253671}
        100% {fill: #383838; stroke: #383838}
      }

      .col-4 .z-1 {
        animation: col4z1 .6s steps(5, jump-none) infinite alternate;
      }

      @keyframes col4z1 {
        0% {fill: #5c5b5c; stroke: #5c5b5c}
        25% {fill: #5c5b5c; stroke: #5c5b5c}
        50% {fill: #5c5b5c; stroke: #5c5b5c}
        75% {fill: #3157a4; stroke: #3157a4}
        100% {fill: #5c5b5c; stroke: #5c5b5c}
      }

      .col-5 .z-0 {
        animation: col5z0 .6s steps(5, jump-none) infinite alternate;
      }

      @keyframes col5z0 {
        0% {fill: #383838; stroke: #383838}
        25% {fill: #383838; stroke: #383838}
        50% {fill: #383838; stroke: #383838}
        75% {fill: #383838; stroke: #383838}
        100% {fill: #253671; stroke: #253671}
      }

      .col-5 .z-1 {
        animation: col5z1 .6s steps(5, jump-none) infinite alternate;
      }

      @keyframes col5z1 {
        0% {fill: #5c5b5c; stroke: #5c5b5c}
        25% {fill: #5c5b5c; stroke: #5c5b5c}
        50% {fill: #5c5b5c; stroke: #5c5b5c}
        75% {fill: #5c5b5c; stroke: #5c5b5c}
        100% {fill: #3157a4; stroke: #3157a4}
      }

    </style>
  </defs>
  <!-- <script type="text/javascript">
    var i = 1;                

    function myLoop() {         
      setTimeout(function() {   
        console.log('hello');  
        i++;                   
        if (i < 10) {      
          myLoop();        
        }                       
      }, 3000)
    }
    
    myLoop();              
  </script> -->
</svg>